<svg xmlns="http://www.w3.org/2000/svg" width="123" height="28" viewBox="0 0 123 28" fill="none">
    <path
        d="M34.2618 16.7057C34.794 13.7794 35.1116 11.7664 35.3822 9.4668C36.821 9.49356 38.2691 9.59896 39.7115 9.59896C42.1083 9.59896 44.1719 9.54572 44.8472 9.4668C44.7418 9.78056 44.6353 10.0954 44.5498 10.5643C44.4499 11.1129 44.4553 11.348 44.4343 11.7407C42.6001 11.6093 39.6976 11.4258 38.9644 11.4258C38.4955 13.3335 38.1523 15.2156 37.8046 17.1232C39.9417 17.07 41.5174 17.0195 43.3947 16.9141C43.1875 17.5151 43.1203 17.75 43.0589 18.0897C43.0056 18.3769 43.013 18.6118 42.9865 19.1615C41.1558 19.0044 39.3352 18.9266 37.478 18.9266C37.2779 20.023 37.0496 21.1473 36.8448 22.2712C36.6446 23.3676 36.4649 24.4919 36.3246 25.5388C38.1588 25.5388 40.0602 25.4342 41.987 25.1983C41.8715 25.5634 41.7751 25.8258 41.676 26.3736C41.5761 26.9233 41.5769 27.1847 41.5687 27.4987C40.6932 27.4719 39.5619 27.3665 37.3128 27.3665C33.326 27.3665 32.6523 27.4454 32.1045 27.4987C32.6689 25.1983 33.0835 23.1869 33.6168 20.2587L34.2618 16.7057Z"
        fill="black" />
    <path
        d="M46.8068 16.7057C47.339 13.7794 47.6555 11.7664 47.9272 9.4668C48.4556 9.52005 49.1025 9.59896 49.9092 9.59896C50.7159 9.59896 51.3904 9.52005 51.9381 9.4668C51.3748 11.7664 50.9592 13.7786 50.427 16.7057L49.7809 20.2595C49.2478 23.1866 48.9302 25.1991 48.6585 27.4995C48.1309 27.4463 47.4849 27.3673 46.6782 27.3673C45.8707 27.3673 45.1962 27.4463 44.6484 27.4995C45.2129 25.1991 45.6274 23.1877 46.1596 20.2595L46.8068 16.7057Z"
        fill="black" />
    <path
        d="M54.6326 16.7057C55.1648 13.7794 55.4824 11.7664 55.753 9.4668C57.1918 9.49356 58.6396 9.59896 60.0823 9.59896C62.4791 9.59896 64.5427 9.54572 65.2183 9.4668C65.1126 9.78056 65.0064 10.0954 64.9209 10.5643C64.8209 11.1129 64.8264 11.348 64.8043 11.7407C62.97 11.6093 60.0684 11.4258 59.3354 11.4258C58.8647 13.3335 58.5233 15.2156 58.1757 17.1232C60.3128 17.07 61.8873 17.0195 63.7647 16.9141C63.5582 17.5151 63.4903 17.75 63.4299 18.0897C63.3767 18.3769 63.3832 18.6118 63.3564 19.1615C61.5269 19.0044 59.7063 18.9266 57.8491 18.9266L57.605 20.2581C57.0747 23.1852 56.7563 25.1978 56.4845 27.4981C55.9559 27.4449 55.3101 27.366 54.5026 27.366C53.6959 27.366 53.0225 27.4449 52.4736 27.4981C53.0389 25.1978 53.4537 23.1863 53.9859 20.2581L54.6326 16.7057Z"
        fill="black" />
    <path
        d="M66.8604 16.7057C67.3907 13.7794 67.7091 11.7664 67.9808 9.4668C69.4177 9.49356 70.8666 9.59896 72.3101 9.59896C74.706 9.59896 76.7705 9.54572 77.445 9.4668C77.3385 9.78056 77.2339 10.0954 77.1468 10.5643C77.0488 11.1129 77.0531 11.348 77.0321 11.7407C75.1968 11.6093 72.2954 11.4258 71.5622 11.4258C71.0925 13.3335 70.75 15.2156 70.4032 17.1232C72.5395 17.07 74.114 17.0195 75.9922 16.9141C75.785 17.5151 75.7178 17.75 75.6555 18.0897C75.6034 18.3769 75.6097 18.6118 75.584 19.1615C73.7544 19.0044 71.9338 18.9266 70.0747 18.9266L69.8325 20.2581C69.3003 23.1852 68.9827 25.1978 68.7121 27.4981C68.1826 27.4449 67.5365 27.366 66.7301 27.366C65.9226 27.366 65.2481 27.4449 64.7012 27.4981C65.2656 25.1978 65.6812 23.1863 66.2115 20.2581L66.8604 16.7057Z"
        fill="black" />
    <path
        d="M80.5313 20.599C81.6261 18.4821 82.7593 16.4182 83.9614 14.3803C84.3724 16.4193 84.6826 18.4829 85.0076 20.599H80.5313ZM86.7361 9.3374C86.4103 9.38983 86.102 9.46766 85.7847 9.46766C85.4663 9.46766 85.1872 9.38956 84.8789 9.3374C81.6911 15.2953 76.3323 24.599 74.6064 27.4995C75.0808 27.4463 75.4625 27.3674 75.8525 27.3674C76.2424 27.3674 76.5966 27.4463 76.9775 27.4995C77.7714 25.6964 78.6321 23.919 79.6157 22.1416C80.4764 22.1159 81.3123 22.0883 82.1684 22.0883C83.22 22.0883 84.2413 22.1148 85.2883 22.1416C85.5764 23.919 85.8104 25.721 86.0013 27.4995C86.6949 27.4463 87.418 27.3674 88.1034 27.3674C88.788 27.3674 89.4587 27.4463 90.2315 27.4995C89.1476 23.239 87.7317 15.2953 86.7361 9.3374Z"
        fill="black" />
    <path
        d="M108.063 13.3609C107.323 11.7937 105.947 10.7476 103.723 10.7476C100.689 10.7476 97.0704 13.4398 96.0712 18.9281C95.317 23.0821 96.9227 26.2175 100.689 26.2175C101.519 26.2175 102.996 26.0348 103.44 25.7478C103.589 25.3295 103.707 24.676 103.845 23.9182C104.359 21.0957 104.426 19.9212 104.491 19.4248C104.799 19.4769 105.275 19.555 106.277 19.555C107.45 19.555 107.954 19.4769 108.282 19.4248C108.06 19.9734 107.592 22.1419 107.288 23.8136C107.088 24.9111 106.86 26.2959 106.838 26.6886C104.592 27.3428 102.252 27.8393 100.099 27.8393C94.4754 27.8393 91.0628 24.4158 92.0327 19.0843C93.2383 12.4472 98.2211 9.12744 103.967 9.12744C106.437 9.12744 107.996 9.70171 109.576 10.6957C109.144 11.5848 108.715 12.4731 108.407 13.3604H108.063"
        fill="black" />
    <path
        d="M112.297 16.7057C112.83 13.7794 113.147 11.7664 113.419 9.4668C114.856 9.49356 116.306 9.59896 117.747 9.59896C120.144 9.59896 122.208 9.54572 122.883 9.4668C122.778 9.78056 122.671 10.0954 122.586 10.5643C122.486 11.1129 122.491 11.348 122.469 11.7407C120.635 11.6093 117.734 11.4258 117 11.4258C116.531 13.3335 116.188 15.2156 115.841 17.1232C117.979 17.07 119.553 17.0195 121.431 16.9141C121.222 17.5151 121.156 17.75 121.095 18.0897C121.042 18.3769 121.049 18.6118 121.022 19.1615C119.193 19.0044 117.372 18.9266 115.514 18.9266C115.314 20.023 115.085 21.1473 114.881 22.2712C114.681 23.3676 114.501 24.4919 114.361 25.5388C116.195 25.5388 118.096 25.4342 120.023 25.1983C119.907 25.5634 119.811 25.8258 119.711 26.3736C119.612 26.9233 119.612 27.1847 119.604 27.4987C118.728 27.4719 117.597 27.3665 115.348 27.3665C111.361 27.3665 110.688 27.4454 110.139 27.4987C110.704 25.1983 111.119 23.1869 111.652 20.2587L112.297 16.7057Z"
        fill="black" />
    <path d="M4.01807 4.88777H24.1089V23.7987L28.8375 19.0701V0.161133" fill="#EE3224" />
    <path d="M28.8375 0.161133H8.7447L4.01807 4.88777" fill="#EE3224" />
    <path d="M0 8.43408H20.5644V13.1615H0" fill="#EE3224" />
    <path d="M0 15.5254H20.5644V20.252H0" fill="#EE3224" />
    <path d="M0 22.6167H20.5644V27.3442H0" fill="#EE3224" />
</svg>